<svg width="80" height="80" viewBox="0 0 80 80" fill="none"
    xmlns="http://www.w3.org/2000/svg">
    <path fillRule="evenodd" clipRule="evenodd" d="M40 73.3334C35.6226 73.3334 31.288 72.4712 27.2438 70.796C23.1997 69.1208 19.525 66.6655 16.4297 63.5702C10.1785 57.319 6.66663 48.8406 6.66663 40C6.66663 31.1595 10.1785 22.681 16.4297 16.4298C22.6809 10.1786 31.1594 6.66669 40 6.66669C58.3333 6.66669 73.3333 20 73.3333 36.6667C73.3333 41.971 71.2262 47.0581 67.4754 50.8088C63.7247 54.5595 58.6376 56.6667 53.3333 56.6667H47.3333C46.3333 56.6667 45.6666 57.3334 45.6666 58.3334C45.6666 58.5 45.75 58.6667 45.8333 58.8334C45.9166 59 46 59.1667 46 59.3334C47.3333 61 48 63 48 65C48.3333 69.6667 44.6666 73.3334 40 73.3334ZM40 13.3334C32.9275 13.3334 26.1447 16.1429 21.1438 21.1438C16.1428 26.1448 13.3333 32.9276 13.3333 40C13.3333 47.0725 16.1428 53.8552 21.1438 58.8562C26.1447 63.8572 32.9275 66.6667 40 66.6667C41 66.6667 41.6666 66 41.6666 65C41.6666 64.6095 41.5522 64.3334 41.4575 64.1046C41.3905 63.9428 41.3333 63.8048 41.3333 63.6667C40 62 39.3333 60.3334 39.3333 58.3334C39.3333 53.6667 43 50 47.6666 50H53.3333C56.8695 50 60.2609 48.5953 62.7614 46.0948C65.2619 43.5943 66.6666 40.2029 66.6666 36.6667C66.6666 23.6667 54.6666 13.3334 40 13.3334ZM21.6666 33.3334C24.3333 33.3334 26.6666 35.6667 26.6666 38.3334C26.6666 41 24.3333 43.3334 21.6666 43.3334C19 43.3334 16.6666 41 16.6666 38.3334C16.6666 35.6667 19 33.3334 21.6666 33.3334ZM31.6666 20C34.3333 20 36.6666 22.3334 36.6666 25C36.6666 27.6667 34.3333 30 31.6666 30C29 30 26.6666 27.6667 26.6666 25C26.6666 22.3334 29 20 31.6666 20ZM48.3333 20C51 20 53.3333 22.3334 53.3333 25C53.3333 27.6667 51 30 48.3333 30C45.6666 30 43.3333 27.6667 43.3333 25C43.3333 22.3334 45.6666 20 48.3333 20ZM58.3333 33.3334C61 33.3334 63.3333 35.6667 63.3333 38.3334C63.3333 41 61 43.3334 58.3333 43.3334C55.6666 43.3334 53.3333 41 53.3333 38.3334C53.3333 35.6667 55.6666 33.3334 58.3333 33.3334ZM61 57.5C61.8284 57.5 62.5 58.1716 62.5 59V64.5H68C68.8284 64.5 69.5 65.1716 69.5 66C69.5 66.8284 68.8284 67.5 68 67.5H62.5V73C62.5 73.8284 61.8284 74.5 61 74.5C60.1716 74.5 59.5 73.8284 59.5 73V67.5H54C53.1716 67.5 52.5 66.8284 52.5 66C52.5 65.1716 53.1716 64.5 54 64.5H59.5V59C59.5 58.1716 60.1716 57.5 61 57.5Z"/>
</svg>
