<svg width="30" height="30" viewBox="0 0 38 40" fill="none"
    xmlns="http://www.w3.org/2000/svg">
    <path d="M28 30H27.7461C27.4466 28.5417 26.9193 27.2005 26.1641 25.9766C25.4089 24.7526 24.4909 23.6979 23.4102 22.8125C22.3294 21.9271 21.112 21.237 19.7578 20.7422C18.4036 20.2474 16.9844 20 15.5 20C14.3542 20 13.2474 20.1497 12.1797 20.4492C11.112 20.7487 10.1159 21.1654 9.19141 21.6992C8.26693 22.2331 7.42708 22.8841 6.67188 23.6523C5.91667 24.4206 5.26562 25.2669 4.71875 26.1914C4.17188 27.1159 3.7487 28.112 3.44922 29.1797C3.14974 30.2474 3 31.3542 3 32.5H0.5C0.5 30.9375 0.727865 29.4336 1.18359 27.9883C1.63932 26.543 2.29688 25.2083 3.15625 23.9844C4.01562 22.7604 5.03125 21.6732 6.20312 20.7227C7.375 19.7721 8.70312 19.0234 10.1875 18.4766C8.71615 17.513 7.57031 16.3021 6.75 14.8438C5.92969 13.3854 5.51302 11.7708 5.5 10C5.5 8.61979 5.76042 7.32422 6.28125 6.11328C6.80208 4.90234 7.51172 3.84115 8.41016 2.92969C9.30859 2.01823 10.3698 1.30208 11.5938 0.78125C12.8177 0.260417 14.1198 0 15.5 0C16.8802 0 18.1758 0.260417 19.3867 0.78125C20.5977 1.30208 21.6589 2.01172 22.5703 2.91016C23.4818 3.80859 24.1979 4.86979 24.7188 6.09375C25.2396 7.31771 25.5 8.61979 25.5 10C25.5 10.8594 25.3958 11.6992 25.1875 12.5195C24.9792 13.3398 24.6667 14.1146 24.25 14.8438C23.8333 15.5729 23.3451 16.2435 22.7852 16.8555C22.2253 17.4674 21.5677 18.0078 20.8125 18.4766C22.2708 19.0365 23.612 19.8047 24.8359 20.7812C26.0599 21.7578 27.1146 22.9036 28 24.2188V30ZM8 10C8 11.0417 8.19531 12.0117 8.58594 12.9102C8.97656 13.8086 9.51042 14.6029 10.1875 15.293C10.8646 15.9831 11.6589 16.5234 12.5703 16.9141C13.4818 17.3047 14.4583 17.5 15.5 17.5C16.5286 17.5 17.4987 17.3047 18.4102 16.9141C19.3216 16.5234 20.1159 15.9896 20.793 15.3125C21.4701 14.6354 22.0104 13.8411 22.4141 12.9297C22.8177 12.0182 23.013 11.0417 23 10C23 8.97135 22.8047 8.0013 22.4141 7.08984C22.0234 6.17839 21.4896 5.38411 20.8125 4.70703C20.1354 4.02995 19.3346 3.48958 18.4102 3.08594C17.4857 2.68229 16.5156 2.48698 15.5 2.5C14.4583 2.5 13.4883 2.69531 12.5898 3.08594C11.6914 3.47656 10.8971 4.01042 10.207 4.6875C9.51693 5.36458 8.97656 6.16536 8.58594 7.08984C8.19531 8.01432 8 8.98438 8 10ZM33 32.5H38V35H33V40H30.5V35H25.5V32.5H30.5V27.5H33V32.5Z"/>
</svg>
