<svg width="57" height="59" viewBox="0 0 57 59" fill="none"
    xmlns="http://www.w3.org/2000/svg">
    <g clip-path="url(#clip0_0_1)">
        <path d="M49.0455 0H14.9545C10.5614 0 7 3.56137 7 7.95455V42.0455C7 46.4386 10.5614 50 14.9545 50H49.0455C53.4386 50 57 46.4386 57 42.0455V7.95455C57 3.56137 53.4386 0 49.0455 0Z" />
        <path d="M45.6364 12.5H27.4546C26.1994 12.5 25.1818 13.5175 25.1818 14.7727C25.1818 16.0279 26.1994 17.0455 27.4546 17.0455H45.6364C46.8916 17.0455 47.9091 16.0279 47.9091 14.7727C47.9091 13.5175 46.8916 12.5 45.6364 12.5Z" fill="white"/>
        <path d="M45.6364 22.7273H27.4546C26.1994 22.7273 25.1818 23.7448 25.1818 25C25.1818 26.2552 26.1994 27.2727 27.4546 27.2727H45.6364C46.8916 27.2727 47.9091 26.2552 47.9091 25C47.9091 23.7448 46.8916 22.7273 45.6364 22.7273Z" fill="white"/>
        <path d="M45.6364 32.9546H27.4546C26.1994 32.9546 25.1818 33.9721 25.1818 35.2273C25.1818 36.4825 26.1994 37.5 27.4546 37.5H45.6364C46.8916 37.5 47.9091 36.4825 47.9091 35.2273C47.9091 33.9721 46.8916 32.9546 45.6364 32.9546Z" fill="white"/>
        <path d="M20.6363 14.2046C20.6363 12.6356 19.3644 11.3636 17.7954 11.3636C16.2264 11.3636 14.9545 12.6356 14.9545 14.2046C14.9545 15.7735 16.2264 17.0455 17.7954 17.0455C19.3644 17.0455 20.6363 15.7735 20.6363 14.2046Z" fill="white"/>
        <path d="M20.6363 24.4319C20.6363 22.8629 19.3644 21.5909 17.7954 21.5909C16.2264 21.5909 14.9545 22.8629 14.9545 24.4319C14.9545 26.0008 16.2264 27.2728 17.7954 27.2728C19.3644 27.2728 20.6363 26.0008 20.6363 24.4319Z" fill="white"/>
        <path d="M20.6363 34.6591C20.6363 33.0902 19.3644 31.8182 17.7954 31.8182C16.2264 31.8182 14.9545 33.0902 14.9545 34.6591C14.9545 36.2281 16.2264 37.5001 17.7954 37.5001C19.3644 37.5001 20.6363 36.2281 20.6363 34.6591Z" fill="white"/>
    </g>
    <circle cx="13" cy="46" r="11.5" stroke="var(--background-color)" stroke-width="3"/>
    <path d="M13 42V50" stroke="white" stroke-width="2" stroke-linecap="round"/>
    <path d="M9 46H17" stroke="white" stroke-width="2" stroke-linecap="round"/>
    <defs>
        <clipPath id="clip0_0_1">
            <rect width="50" height="50" fill="white" transform="translate(7)"/>
        </clipPath>
    </defs>
</svg>
