<svg width="29" height="32" viewBox="0 0 29 32" fill="none"
    xmlns="http://www.w3.org/2000/svg">
    <path fillRule="evenodd" clipRule="evenodd" d="M23.5876 28.3744C24.5639 29.3507 26.1468 29.3507 27.1231 28.3744C28.0994 27.3981 28.0994 25.8151 27.1231 24.8388L18.6378 16.3536L27.4767 7.51472C28.453 6.53841 28.453 4.9555 27.4767 3.97918C26.5003 3.00287 24.9174 3.00288 23.9411 3.97918L15.1023 12.818L5.9099 3.62563C4.93359 2.64932 3.35068 2.64932 2.37437 3.62563C1.39806 4.60194 1.39806 6.18486 2.37437 7.16117L11.5668 16.3536L2.72792 25.1924C1.75161 26.1687 1.75161 27.7516 2.72792 28.7279C3.70423 29.7042 5.28714 29.7042 6.26346 28.7279L15.1023 19.8891L23.5876 28.3744Z" fill="white"/>
</svg>
