<svg width="100" height="70" viewBox="0 0 90 60" fill="none"
    xmlns="http://www.w3.org/2000/svg">
    <path fill="none" d="M49.1177 34.8088C57.0365 34.8088 63.4555 28.3894 63.4555 20.4706C63.4555 12.5518 57.0365 6.13232 49.1177 6.13232C41.1989 6.13232 34.7794 12.5518 34.7794 20.4706C34.7794 28.3894 41.1989 34.8088 49.1177 34.8088Z" stroke-width="6" stroke-linecap="round" stroke-linejoin="round"/>
    <path fill="none" d="M25.9559 56.8674C25.9559 45.838 34.7795 34.8086 49.1177 34.8086C63.4556 34.8086 72.2791 45.838 72.2791 56.8674" stroke-width="6" stroke-linecap="round" stroke-linejoin="round"/>
    <path fill="none" d="M18.0368 22.0736C23.58 22.0736 28.0736 17.58 28.0736 12.0368C28.0736 6.49365 23.58 2 18.0368 2C12.4936 2 8 6.49365 8 12.0368C8 17.58 12.4936 22.0736 18.0368 22.0736Z" stroke-width="6" stroke-linecap="round" stroke-linejoin="round"/>
    <path fill="none" d="M2 39.4412C2 31.7205 8.17647 24 18.2133 24C28.2501 24 34.4265 31.7205 34.4265 39.4412" stroke-width="6" stroke-linecap="round" stroke-linejoin="round"/>
    <path fill="none" d="M76.5 26C80.6422 26 84 22.6421 84 18.5C84 14.3579 80.6422 11 76.5 11C72.3578 11 69 14.3579 69 18.5C69 22.6421 72.3578 26 76.5 26Z" stroke-width="6" stroke-linecap="round" stroke-linejoin="round"/>
    <path fill="none" d="M64 39.9046C64 33.9523 68.7619 28 76.5 28C84.2381 28 89 33.9523 89 39.9046" stroke-width="6" stroke-linecap="round" stroke-linejoin="round"/>
</svg>
