<svg width="100" height="59" viewBox="10 0 80 59" fill="none"
    xmlns="http://www.w3.org/2000/svg">
    <path d="M51.7647 34.0073C58.3637 34.0073 63.7129 28.6578 63.7129 22.0588C63.7129 15.4598 58.3637 10.1103 51.7647 10.1103C45.1657 10.1103 39.8162 15.4598 39.8162 22.0588C39.8162 28.6578 45.1657 34.0073 51.7647 34.0073Z" stroke="white" stroke-width="3.5" stroke-linecap="round" stroke-linejoin="round"/>
    <path d="M32.4632 52.3897C32.4632 43.1985 39.8162 34.0074 51.7647 34.0074C63.7129 34.0074 71.0659 43.1985 71.0659 52.3897" stroke="white" stroke-width="3.5" stroke-linecap="round" stroke-linejoin="round"/>
    <path d="M20.5882 32.0405C25.2075 32.0405 28.9522 28.2958 28.9522 23.6765C28.9522 19.0572 25.2075 15.3125 20.5882 15.3125C15.9689 15.3125 12.2242 19.0572 12.2242 23.6765C12.2242 28.2958 15.9689 32.0405 20.5882 32.0405Z" stroke="white" stroke-width="3.5" stroke-linecap="round" stroke-linejoin="round"/>
    <path d="M7.07718 44.9081C7.07718 38.4742 12.2242 32.0405 20.5882 32.0405C28.9522 32.0405 34.0993 38.4742 34.0993 44.9081" stroke="white" stroke-width="3.5" stroke-linecap="round" stroke-linejoin="round"/>
    <path d="M79.4118 25.5699C84.0312 25.5699 87.7759 21.8252 87.7759 17.2059C87.7759 12.5866 84.0312 8.84189 79.4118 8.84189C74.7923 8.84189 71.0476 12.5866 71.0476 17.2059C71.0476 21.8252 74.7923 25.5699 79.4118 25.5699Z" stroke="white" stroke-width="3.5" stroke-linecap="round" stroke-linejoin="round"/>
    <path d="M65.9006 38.4375C65.9006 32.0037 71.0476 25.5699 79.4118 25.5699C87.7759 25.5699 92.9229 32.0037 92.9229 38.4375" stroke="white" stroke-width="3.5" stroke-linecap="round" stroke-linejoin="round"/>
</svg>
