<svg width="51" height="51" viewBox="0 0 51 51" fill="none"
    xmlns="http://www.w3.org/2000/svg">
    <path d="M25.0705 0C21.7874 0 18.5365 0.646644 15.5034 1.90301C12.4702 3.15938 9.71426 5.00087 7.3928 7.32233C2.70439 12.0107 0.0704659 18.3696 0.0704659 25C0.0486105 30.7728 2.04745 36.3713 5.72047 40.825L0.720466 45.825C0.373572 46.1766 0.138581 46.623 0.0451459 47.108C-0.0482894 47.5929 0.00401724 48.0947 0.195466 48.55C0.40311 48.9998 0.739726 49.3778 1.16258 49.636C1.58544 49.8941 2.07547 50.0208 2.57047 50H25.0705C31.7009 50 38.0597 47.3661 42.7481 42.6777C47.4365 37.9893 50.0705 31.6304 50.0705 25C50.0705 18.3696 47.4365 12.0107 42.7481 7.32233C38.0597 2.63392 31.7009 0 25.0705 0ZM25.0705 45H8.59547L10.9205 42.675C11.3861 42.2066 11.6474 41.573 11.6474 40.9125C11.6474 40.252 11.3861 39.6184 10.9205 39.15C7.64693 35.8801 5.6084 31.5763 5.15219 26.972C4.69599 22.3676 5.85032 17.7475 8.41853 13.8988C10.9867 10.0501 14.8099 7.2109 19.2368 5.86493C23.6636 4.51897 28.4201 4.74951 32.696 6.51728C36.9719 8.28506 40.5026 11.4807 42.6866 15.5597C44.8705 19.6388 45.5726 24.3489 44.6733 28.8875C43.7739 33.4262 41.3287 37.5126 37.7543 40.4506C34.1799 43.3886 29.6974 44.9964 25.0705 45ZM37.5705 22.5H12.5705C11.9074 22.5 11.2715 22.7634 10.8027 23.2322C10.3339 23.7011 10.0705 24.337 10.0705 25C10.0705 25.663 10.3339 26.2989 10.8027 26.7678C11.2715 27.2366 11.9074 27.5 12.5705 27.5H37.5705C38.2335 27.5 38.8694 27.2366 39.3382 26.7678C39.8071 26.2989 40.0705 25.663 40.0705 25C40.0705 24.337 39.8071 23.7011 39.3382 23.2322C38.8694 22.7634 38.2335 22.5 37.5705 22.5ZM32.5705 32.5H17.5705C16.9074 32.5 16.2715 32.7634 15.8027 33.2322C15.3339 33.7011 15.0705 34.337 15.0705 35C15.0705 35.663 15.3339 36.2989 15.8027 36.7678C16.2715 37.2366 16.9074 37.5 17.5705 37.5H32.5705C33.2335 37.5 33.8694 37.2366 34.3382 36.7678C34.8071 36.2989 35.0705 35.663 35.0705 35C35.0705 34.337 34.8071 33.7011 34.3382 33.2322C33.8694 32.7634 33.2335 32.5 32.5705 32.5ZM17.5705 17.5H32.5705C33.2335 17.5 33.8694 17.2366 34.3382 16.7678C34.8071 16.2989 35.0705 15.663 35.0705 15C35.0705 14.337 34.8071 13.7011 34.3382 13.2322C33.8694 12.7634 33.2335 12.5 32.5705 12.5H17.5705C16.9074 12.5 16.2715 12.7634 15.8027 13.2322C15.3339 13.7011 15.0705 14.337 15.0705 15C15.0705 15.663 15.3339 16.2989 15.8027 16.7678C16.2715 17.2366 16.9074 17.5 17.5705 17.5Z"/>
</svg>
