<svg width="47" height="46" viewBox="0 0 47 46" fill="none" xmlns="http://www.w3.org/2000/svg">
    <path
        d="M21.2083 34.4585H25.7917V20.7085H21.2083V34.4585ZM23.5 16.1252C24.1493 16.1252 24.694 15.9052 25.134 15.4652C25.5724 15.0267 25.7917 14.4828 25.7917 13.8335C25.7917 13.1842 25.5724 12.6395 25.134 12.1995C24.694 11.7611 24.1493 11.5418 23.5 11.5418C22.8507 11.5418 22.3068 11.7611 21.8683 12.1995C21.4283 12.6395 21.2083 13.1842 21.2083 13.8335C21.2083 14.4828 21.4283 15.0267 21.8683 15.4652C22.3068 15.9052 22.8507 16.1252 23.5 16.1252ZM23.5 45.9168C20.3299 45.9168 17.3507 45.3149 14.5625 44.111C11.7743 42.9086 9.34897 41.2762 7.28647 39.2137C5.22397 37.1512 3.59154 34.7259 2.38918 31.9377C1.18529 29.1495 0.583344 26.1703 0.583344 23.0002C0.583344 19.83 1.18529 16.8509 2.38918 14.0627C3.59154 11.2745 5.22397 8.84912 7.28647 6.78662C9.34897 4.72412 11.7743 3.09093 14.5625 1.88704C17.3507 0.684676 20.3299 0.0834961 23.5 0.0834961C26.6701 0.0834961 29.6493 0.684676 32.4375 1.88704C35.2257 3.09093 37.6511 4.72412 39.7136 6.78662C41.7761 8.84912 43.4085 11.2745 44.6108 14.0627C45.8147 16.8509 46.4167 19.83 46.4167 23.0002C46.4167 26.1703 45.8147 29.1495 44.6108 31.9377C43.4085 34.7259 41.7761 37.1512 39.7136 39.2137C37.6511 41.2762 35.2257 42.9086 32.4375 44.111C29.6493 45.3149 26.6701 45.9168 23.5 45.9168Z"
        fill="white" fill-opacity="0.78" />
</svg>
    