<svg width="48" height="48" viewBox="0 0 48 48" fill="none"
    xmlns="http://www.w3.org/2000/svg">
    <path d="M0 6C0 4.4087 0.632141 2.88258 1.75736 1.75736C2.88258 0.632141 4.4087 0 6 0H36C37.5913 0 39.1174 0.632141 40.2426 1.75736C41.3679 2.88258 42 4.4087 42 6V19.8C39.6785 18.6127 37.1075 17.9956 34.5 18C30.969 18 27.696 19.11 25.011 21H19.5C19.1022 21 18.7206 21.158 18.4393 21.4393C18.158 21.7206 18 22.1022 18 22.5C18 22.8978 18.158 23.2794 18.4393 23.5607C18.7206 23.842 19.1022 24 19.5 24H21.771C19.3279 26.9531 17.9939 30.6673 18 34.5C18 37.2 18.648 39.75 19.8 42H6C4.4087 42 2.88258 41.3679 1.75736 40.2426C0.632141 39.1174 0 37.5913 0 36V6ZM11.25 15C11.8467 15 12.419 14.7629 12.841 14.341C13.2629 13.919 13.5 13.3467 13.5 12.75C13.5 12.1533 13.2629 11.581 12.841 11.159C12.419 10.7371 11.8467 10.5 11.25 10.5C10.6533 10.5 10.081 10.7371 9.65901 11.159C9.23705 11.581 9 12.1533 9 12.75C9 13.3467 9.23705 13.919 9.65901 14.341C10.081 14.7629 10.6533 15 11.25 15ZM9 21.75C9 22.3467 9.23705 22.919 9.65901 23.341C10.081 23.7629 10.6533 24 11.25 24C11.8467 24 12.419 23.7629 12.841 23.341C13.2629 22.919 13.5 22.3467 13.5 21.75C13.5 21.1533 13.2629 20.581 12.841 20.159C12.419 19.7371 11.8467 19.5 11.25 19.5C10.6533 19.5 10.081 19.7371 9.65901 20.159C9.23705 20.581 9 21.1533 9 21.75V21.75ZM11.25 33C11.8467 33 12.419 32.7629 12.841 32.341C13.2629 31.919 13.5 31.3467 13.5 30.75C13.5 30.1533 13.2629 29.581 12.841 29.159C12.419 28.7371 11.8467 28.5 11.25 28.5C10.6533 28.5 10.081 28.7371 9.65901 29.159C9.23705 29.581 9 30.1533 9 30.75C9 31.3467 9.23705 31.919 9.65901 32.341C10.081 32.7629 10.6533 33 11.25 33V33ZM31.5 12H19.5C19.1022 12 18.7206 12.158 18.4393 12.4393C18.158 12.7206 18 13.1022 18 13.5C18 13.8978 18.158 14.2794 18.4393 14.5607C18.7206 14.842 19.1022 15 19.5 15H31.5C31.8978 15 32.2794 14.842 32.5607 14.5607C32.842 14.2794 33 13.8978 33 13.5C33 13.1022 32.842 12.7206 32.5607 12.4393C32.2794 12.158 31.8978 12 31.5 12ZM34.5 48C38.0804 48 41.5142 46.5777 44.0459 44.0459C46.5777 41.5142 48 38.0804 48 34.5C48 30.9196 46.5777 27.4858 44.0459 24.9541C41.5142 22.4223 38.0804 21 34.5 21C30.9196 21 27.4858 22.4223 24.9541 24.9541C22.4223 27.4858 21 30.9196 21 34.5C21 38.0804 22.4223 41.5142 24.9541 44.0459C27.4858 46.5777 30.9196 48 34.5 48V48ZM33 28.5C33 28.1022 33.158 27.7206 33.4393 27.4393C33.7206 27.158 34.1022 27 34.5 27C34.8978 27 35.2794 27.158 35.5607 27.4393C35.842 27.7206 36 28.1022 36 28.5V33H39C39.3978 33 39.7794 33.158 40.0607 33.4393C40.342 33.7206 40.5 34.1022 40.5 34.5C40.5 34.8978 40.342 35.2794 40.0607 35.5607C39.7794 35.842 39.3978 36 39 36H34.5C34.1022 36 33.7206 35.842 33.4393 35.5607C33.158 35.2794 33 34.8978 33 34.5V28.5Z"/>
</svg>
