<svg width="50" height="50" viewBox="0 0 68 68" fill="none"
    xmlns="http://www.w3.org/2000/svg">
    <path fill-rule="evenodd" clip-rule="evenodd" d="M34 0.666626C29.6226 0.666626 25.2881 1.52882 21.2439 3.20397C17.1997 4.87913 13.5251 7.33445 10.4298 10.4297C4.17856 16.6809 0.666663 25.1594 0.666663 34C0.637522 41.6971 3.30264 49.1618 8.2 55.1L1.53333 61.7666C1.0708 62.2354 0.757483 62.8306 0.632903 63.4772C0.508322 64.1239 0.578064 64.7929 0.833329 65.4C1.11019 65.9997 1.55901 66.5037 2.12282 66.8479C2.68663 67.1921 3.34 67.3611 4 67.3333H34C42.8405 67.3333 51.319 63.8214 57.5702 57.5702C63.8214 51.319 67.3333 42.8405 67.3333 34C67.3333 25.1594 63.8214 16.6809 57.5702 10.4297C51.319 4.17852 42.8405 0.666626 34 0.666626ZM14.9763 31.6429C15.6014 31.0178 16.4493 30.6666 17.3333 30.6666H50.6667C51.5507 30.6666 52.3986 31.0178 53.0237 31.6429C53.6488 32.2681 54 33.1159 54 34C54 34.884 53.6488 35.7319 53.0237 36.357C52.3986 36.9821 51.5507 37.3333 50.6667 37.3333H17.3333C16.4493 37.3333 15.6014 36.9821 14.9763 36.357C14.3512 35.7319 14 34.884 14 34C14 33.1159 14.3512 32.2681 14.9763 31.6429ZM24 44C23.1159 44 22.2681 44.3511 21.643 44.9763C21.0179 45.6014 20.6667 46.4492 20.6667 47.3333C20.6667 48.2173 21.0179 49.0652 21.643 49.6903C22.2681 50.3154 23.1159 50.6666 24 50.6666H44C44.8841 50.6666 45.7319 50.3154 46.357 49.6903C46.9821 49.0652 47.3333 48.2173 47.3333 47.3333C47.3333 46.4492 46.9821 45.6014 46.357 44.9763C45.7319 44.3511 44.8841 44 44 44H24ZM44 24H24C23.1159 24 22.2681 23.6488 21.643 23.0236C21.0179 22.3985 20.6667 21.5507 20.6667 20.6666C20.6667 19.7826 21.0179 18.9347 21.643 18.3096C22.2681 17.6845 23.1159 17.3333 24 17.3333H44C44.8841 17.3333 45.7319 17.6845 46.357 18.3096C46.9821 18.9347 47.3333 19.7826 47.3333 20.6666C47.3333 21.5507 46.9821 22.3985 46.357 23.0236C45.7319 23.6488 44.8841 24 44 24Z"/>
</svg>