<svg width="59" height="59" viewBox="0 0 59 59" fill="none"
    xmlns="http://www.w3.org/2000/svg">
    <path fill-rule="evenodd" clip-rule="evenodd" d="M25.0352 0C21.7568 0 18.5104 0.646616 15.4816 1.90293C12.4527 3.15924 9.70059 5.00064 7.38239 7.32201C2.70058 12.0102 0.0703668 18.3688 0.0703668 24.9989C0.0485421 30.7715 2.04457 36.3697 5.71242 40.8232L0.719452 45.823C0.373046 46.1745 0.138386 46.6209 0.0450823 47.1059C-0.0482215 47.5908 0.00401158 48.0926 0.195191 48.5478C0.402543 48.9977 0.738685 49.3756 1.16095 49.6338C1.58321 49.8919 2.07255 50.0186 2.56685 49.9978H25.0352C31.6563 49.9978 38.0062 47.364 42.688 42.6758C47.3698 37.9876 50 31.629 50 24.9989C50 18.3688 47.3698 12.0102 42.688 7.32201C38.0062 2.6338 31.6563 0 25.0352 0ZM10.7875 23.2312C11.2557 22.7624 11.8907 22.499 12.5528 22.499H37.5176C38.1797 22.499 38.8147 22.7624 39.2829 23.2312C39.7511 23.7 40.0141 24.3359 40.0141 24.9989C40.0141 25.6619 39.7511 26.2978 39.2829 26.7666C38.8147 27.2354 38.1797 27.4988 37.5176 27.4988H12.5528C11.8907 27.4988 11.2557 27.2354 10.7875 26.7666C10.3193 26.2978 10.0563 25.6619 10.0563 24.9989C10.0563 24.3359 10.3193 23.7 10.7875 23.2312ZM17.5457 32.4986C16.8836 32.4986 16.2486 32.7619 15.7805 33.2308C15.3123 33.6996 15.0493 34.3354 15.0493 34.9984C15.0493 35.6615 15.3123 36.2973 15.7805 36.7661C16.2486 37.235 16.8836 37.4983 17.5457 37.4983H32.5246C33.1867 37.4983 33.8217 37.235 34.2899 36.7661C34.7581 36.2973 35.0211 35.6615 35.0211 34.9984C35.0211 34.3354 34.7581 33.6996 34.2899 33.2308C33.8217 32.7619 33.1867 32.4986 32.5246 32.4986H17.5457ZM32.5246 17.4992H17.5457C16.8836 17.4992 16.2486 17.2358 15.7805 16.767C15.3123 16.2982 15.0493 15.6623 15.0493 14.9993C15.0493 14.3363 15.3123 13.7005 15.7805 13.2316C16.2486 12.7628 16.8836 12.4994 17.5457 12.4994H32.5246C33.1867 12.4994 33.8217 12.7628 34.2899 13.2316C34.7581 13.7005 35.0211 14.3363 35.0211 14.9993C35.0211 15.6623 34.7581 16.2982 34.2899 16.767C33.8217 17.2358 33.1867 17.4992 32.5246 17.4992Z"/>
    <circle cx="46" cy="46" r="11.5" fill="red" stroke="var(--background-color)" stroke-width="3"/>
    <path d="M42 46H50" stroke="white" stroke-width="2" stroke-linecap="round"/>
</svg>
