<svg width="70" height="70" viewBox="0 0 75 85" fill="none"
    xmlns="http://www.w3.org/2000/svg">
    <path fill-rule="evenodd" clip-rule="evenodd" d="M40 73.3333C35.6226 73.3333 31.2881 72.4711 27.2439 70.7959C23.1997 69.1208 19.525 66.6655 16.4298 63.5702C10.1786 57.319 6.66666 48.8405 6.66666 40C6.66666 31.1594 10.1786 22.6809 16.4298 16.4297C22.681 10.1785 31.1594 6.66663 40 6.66663C58.3333 6.66663 73.3333 20 73.3333 36.6666C73.3333 41.971 71.2262 47.058 67.4755 50.8088C63.7247 54.5595 58.6377 56.6666 53.3333 56.6666H47.3333C46.3333 56.6666 45.6667 57.3333 45.6667 58.3333C45.6667 58.5 45.75 58.6666 45.8333 58.8333C45.9167 59 46 59.1666 46 59.3333C47.3333 61 48 63 48 65C48.3333 69.6666 44.6667 73.3333 40 73.3333ZM21.6667 33.3333C24.3333 33.3333 26.6667 35.6666 26.6667 38.3333C26.6667 41 24.3333 43.3333 21.6667 43.3333C19 43.3333 16.6667 41 16.6667 38.3333C16.6667 35.6666 19 33.3333 21.6667 33.3333ZM36.6667 25C36.6667 22.3333 34.3333 20 31.6667 20C29 20 26.6667 22.3333 26.6667 25C26.6667 27.6666 29 30 31.6667 30C34.3333 30 36.6667 27.6666 36.6667 25ZM48.3333 20C51 20 53.3333 22.3333 53.3333 25C53.3333 27.6666 51 30 48.3333 30C45.6667 30 43.3333 27.6666 43.3333 25C43.3333 22.3333 45.6667 20 48.3333 20ZM63.3333 38.3333C63.3333 35.6666 61 33.3333 58.3333 33.3333C55.6667 33.3333 53.3333 35.6666 53.3333 38.3333C53.3333 41 55.6667 43.3333 58.3333 43.3333C61 43.3333 63.3333 41 63.3333 38.3333Z"/>
    <circle cx="22" cy="63" r="13.5" fill='red' stroke="var(--background-color)" stroke-width="3"/>
    <path d="M17 63H27" stroke="white" stroke-width="3" stroke-linecap="round"/>
</svg>
