<svg width="57" height="59" viewBox="0 0 57 59" fill="none"
    xmlns="http://www.w3.org/2000/svg">
    <path d="M32 40.425L20.2646 49.3295C19.6831 49.8023 19.0488 50.0251 18.3616 49.9978C17.6744 49.9725 17.0665 49.7761 16.5378 49.4083C16.0092 49.0406 15.6001 48.5415 15.3104 47.9111C15.0186 47.2807 15.0048 46.5978 15.2691 45.8623L19.7889 31.2841L8.29135 23.1675C7.657 22.7473 7.26053 22.1957 7.10195 21.5127C6.94336 20.8298 6.96979 20.1994 7.18124 19.6215C7.39269 19.0436 7.76272 18.5309 8.29135 18.0833C8.81997 17.6378 9.45431 17.4151 10.1944 17.4151H24.3879L28.9869 2.28523C29.2512 1.54976 29.6614 0.98449 30.2175 0.589434C30.7715 0.196478 31.3657 0 32 0C32.6343 0 33.2285 0.196478 33.7825 0.589434C34.3386 0.98449 34.7488 1.54976 35.0131 2.28523L39.6121 17.4151H53.8056C54.5457 17.4151 55.18 17.6378 55.7087 18.0833C56.2373 18.5309 56.6073 19.0436 56.8188 19.6215C57.0302 20.1994 57.0566 20.8298 56.8981 21.5127C56.7395 22.1957 56.343 22.7473 55.7087 23.1675L44.2111 31.2841L48.7309 45.8623C48.9952 46.5978 48.9825 47.2807 48.6928 47.9111C48.401 48.5415 47.9908 49.0406 47.4622 49.4083C46.9335 49.7761 46.3256 49.9725 45.6384 49.9978C44.9512 50.0251 44.3169 49.8023 43.7354 49.3295L32 40.425Z"/>
    <circle cx="13" cy="46" r="11.5" stroke="var(--background-color)" stroke-width="3"/>
    <path d="M9 46H17" stroke="white" stroke-width="2" stroke-linecap="round"/>
</svg>
