<svg width="263" height="58" viewBox="0 0 263 58"
    xmlns="http://www.w3.org/2000/svg">
    <path d="M37.7286 9L30.0334 10.5742L35.3985 17.7185L39.2559 16.9112L37.7286 9ZM24.2766 11.7447L20.4192 12.5318L25.8039 19.6559L29.6417 18.8688L24.2766 11.7447ZM14.682 13.6821L10.8246 14.5096L16.2093 21.6337L20.0471 20.8466L14.682 13.6821ZM5.06782 15.7003L3.1489 16.0838C2.13145 16.2933 1.23625 16.9104 0.659868 17.7996C0.0834846 18.6888 -0.12697 19.7774 0.0747125 20.8264L0.838364 24.782L10.433 22.8244L5.06782 15.7003ZM0.838364 24.782V44.9637C0.838364 46.0342 1.25096 47.0608 1.98538 47.8178C2.71981 48.5747 3.7159 49 4.75453 49H36.0838C38.2573 49 40 47.2038 40 44.9637V24.782H0.838364Z" fill="white"/>
    <path d="M53.1953 46.3516C52.8984 46.3203 52.6719 46.1875 52.5156 45.9531C52.3594 45.7188 52.2969 45.4609 52.3281 45.1797C52.4062 44.6953 52.5547 44.25 52.7734 43.8438C52.9922 43.4375 53.1484 43.1328 53.2422 42.9297C53.3516 42.7266 53.4609 42.5 53.5703 42.25L54.4609 40.1875L64.0938 11.3359L74.4531 31.3516L84.5078 11.3359L96.5312 46H83.9453L78.1328 28.0938L69.1328 46.8438L59.6641 29.9688L56.3828 40.2109C55.8672 41.3516 55.5 42.3203 55.2812 43.1172C55.0625 43.9141 54.8828 44.5312 54.7422 44.9688C54.4297 45.9531 53.9141 46.4141 53.1953 46.3516ZM107.102 41.8281C104.242 41.8281 102.289 41.8047 101.242 41.7578L100.562 43.375C100.359 43.8281 100.172 44.3047 100 44.8047C99.6406 45.7734 99.1406 46.2578 98.5 46.2578C98.2031 46.2578 97.9609 46.1641 97.7734 45.9766C97.5859 45.7891 97.4922 45.5938 97.4922 45.3906C97.4922 45.0469 97.6406 44.6641 97.9375 44.2422C98.4062 43.5859 98.8672 42.7266 99.3203 41.6641C97.9766 41.5391 97.3047 41.1484 97.3047 40.4922C97.3047 39.8359 97.6875 39.5078 98.4531 39.5078C98.9219 39.5078 99.4688 39.5859 100.094 39.7422L111.789 11.3359L127.82 46H115.609L113.664 41.8281H107.102ZM101.992 39.9297C103.492 40.0547 104.836 40.1172 106.023 40.1172H112.891L107.031 27.4844L101.992 39.9297ZM148.82 34.6328L150.742 34.7734C153.492 34.7734 155.828 33.8125 157.75 31.8906C159.672 29.9688 160.633 27.5781 160.633 24.7188C160.633 20.9688 158.984 18.1875 155.688 16.375C153.875 15.375 151.938 14.7969 149.875 14.6406C149 14.5625 148.188 14.5234 147.438 14.5234H145.844C145.516 14.5234 145.227 14.5312 144.977 14.5469V46H133.023V12.8359C136.68 12.8359 139.641 12.8359 141.906 12.8359C144.172 12.8359 145.648 12.8437 146.336 12.8594C147.023 12.875 147.633 12.8984 148.164 12.9297C148.711 12.9453 149.219 12.9688 149.688 13C150.375 13.0625 151.344 13.2109 152.594 13.4453C153.859 13.6797 155.109 14.125 156.344 14.7812C157.578 15.4375 158.641 16.25 159.531 17.2188C161.453 19.2812 162.414 21.7344 162.414 24.5781C162.414 27.3906 161.523 29.875 159.742 32.0312C157.914 34.2344 155.477 35.6562 152.43 36.2969C153.883 40.7969 155.734 43.4844 157.984 44.3594C158.672 44.625 159.359 44.7578 160.047 44.7578L161.898 44.3125C162.477 44.3125 162.766 44.6094 162.766 45.2031C162.766 46.0312 161.797 46.4453 159.859 46.4453C158.453 46.4453 157.164 46.0547 155.992 45.2734C154.164 44.1797 152.609 42.0547 151.328 38.8984L150.648 37.2344C150.539 36.9688 150.438 36.8047 150.344 36.7422C150.266 36.6797 150.117 36.6484 149.898 36.6484C149.695 36.6484 149.516 36.6641 149.359 36.6953L148.797 36.7188C148.172 36.7188 147.742 36.6016 147.508 36.3672C147.289 36.1328 147.18 35.8906 147.18 35.6406C147.18 34.9688 147.727 34.6328 148.82 34.6328ZM195.109 40.4453C195.75 40.4453 196.07 40.8047 196.07 41.5234C196.07 42.1172 195.617 42.7109 194.711 43.3047C193.023 44.4141 191.602 45.1406 190.445 45.4844C188.273 46.125 185.992 46.4453 183.602 46.4453C181.211 46.4453 178.906 46.0234 176.688 45.1797C174.484 44.3203 172.602 43.125 171.039 41.5938C167.773 38.375 166.141 34.2188 166.141 29.125C166.141 26.6719 166.602 24.4219 167.523 22.375C168.445 20.3125 169.719 18.5469 171.344 17.0781C174.781 13.9687 179.102 12.4141 184.305 12.4141C187.227 12.4141 189.797 12.9141 192.016 13.9141C194.375 14.9609 195.555 15.8516 195.555 16.5859C195.555 16.8828 195.453 17.1406 195.25 17.3594C195.062 17.5781 194.844 17.6875 194.594 17.6875C194.094 17.6875 193.641 17.4688 193.234 17.0312C192.828 16.5781 192.273 16.1719 191.57 15.8125C190.883 15.4531 190.125 15.1406 189.297 14.875C187.609 14.3594 186.07 14.1016 184.68 14.1016C183.305 14.1016 182.164 14.1953 181.258 14.3828V44.4297C182.352 44.6172 183.32 44.7109 184.164 44.7109C185.008 44.7109 185.867 44.6562 186.742 44.5469C187.617 44.4375 188.477 44.2578 189.32 44.0078C191.211 43.4453 192.633 42.6172 193.586 41.5234C193.93 41.1172 194.203 40.8359 194.406 40.6797C194.609 40.5234 194.844 40.4453 195.109 40.4453ZM231.109 13.8203L230.969 16.7266V30.7422C230.969 35.3672 229.641 39.125 226.984 42.0156C224.266 44.9688 220.656 46.4453 216.156 46.4453C211.344 46.4453 207.594 44.9375 204.906 41.9219C202.406 39.1562 201.156 35.6094 201.156 31.2812V12.8359H213.133V44.4531C214.336 44.625 215.656 44.7109 217.094 44.7109C218.547 44.7109 220.016 44.4219 221.5 43.8438C223 43.2656 224.312 42.3594 225.438 41.125C227.875 38.4688 229.109 34.5859 229.141 29.4766V16.7734C229.141 16.3047 229.102 15.75 229.023 15.1094C228.961 14.4688 228.93 14.0312 228.93 13.7969C228.93 12.9844 229.312 12.5781 230.078 12.5781C230.766 12.5781 231.109 12.9922 231.109 13.8203ZM238.68 44.3125C238.133 44 237.656 43.6719 237.25 43.3281C236.859 42.9844 236.664 42.6172 236.664 42.2266C236.664 41.4766 236.984 41.1016 237.625 41.1016C238.047 41.1016 238.516 41.3359 239.031 41.8047C239.547 42.2734 240.125 42.6875 240.766 43.0469C241.406 43.3906 242.102 43.6875 242.852 43.9375C244.398 44.4531 245.828 44.7109 247.141 44.7109C248.453 44.7109 249.461 44.625 250.164 44.4531C250.883 44.2812 251.484 44.0469 251.969 43.75C253 43.1094 253.516 42.2891 253.516 41.2891C253.516 40.3672 253.07 39.4375 252.18 38.5C251.43 37.7031 250.367 36.75 248.992 35.6406L244.984 32.5C240.969 29.4062 238.602 26.5781 237.883 24.0156C237.633 23.125 237.508 22.1328 237.508 21.0391C237.508 19.9453 237.75 18.8672 238.234 17.8047C238.734 16.7422 239.469 15.8125 240.438 15.0156C242.516 13.2812 245.344 12.4141 248.922 12.4141C250.75 12.4141 252.391 12.6875 253.844 13.2344C255.297 13.7656 256.289 14.2422 256.82 14.6641C257.352 15.0859 257.617 15.4687 257.617 15.8125C257.617 16.5312 257.32 16.8906 256.727 16.8906C256.383 16.8906 256.016 16.7188 255.625 16.375C255.234 16.0312 254.797 15.7344 254.312 15.4844C253.844 15.2188 253.305 14.9844 252.695 14.7812C251.383 14.3437 250.094 14.125 248.828 14.125C246.5 14.125 245.336 14.8906 245.336 16.4219C245.336 17.0625 245.547 17.6562 245.969 18.2031C246.719 19.1562 248.18 20.5234 250.352 22.3047C252.539 24.0703 254.289 25.6172 255.602 26.9453C256.93 28.2734 257.938 29.4688 258.625 30.5312C259.719 32.2031 260.266 33.9453 260.266 35.7578C260.266 37.5547 259.945 39.0859 259.305 40.3516C258.68 41.6016 257.797 42.6797 256.656 43.5859C254.25 45.4922 251.266 46.4453 247.703 46.4453C244.141 46.4453 241.133 45.7344 238.68 44.3125Z" fill="white"/>
</svg>
