<svg width="40" height="44" viewBox="0 0 40 44" fill="none"
    xmlns="http://www.w3.org/2000/svg">
    <path d="M39.9944 23.3269C39.9944 26.0344 39.4651 28.6205 38.4063 31.0851C37.3476 33.5497 35.9244 35.6759 34.1367 37.4636C32.349 39.2513 30.2229 40.6745 27.7583 41.7332C25.2937 42.7919 22.7076 43.3213 20 43.3213C17.2924 43.3213 14.7063 42.7919 12.2417 41.7332C9.77714 40.6745 7.651 39.2513 5.8633 37.4636C4.0756 35.6759 2.65239 33.5497 1.59365 31.0851C0.534921 28.6205 0.0055542 26.0344 0.0055542 23.3269C0.0055542 20.168 0.704145 17.1914 2.10133 14.397C3.49851 11.6027 5.46411 9.25958 7.99812 7.36775C8.74444 6.81234 9.57321 6.59539 10.4844 6.71688C11.3956 6.83838 12.1202 7.27229 12.6583 8.01861C13.2137 8.74757 13.4263 9.56765 13.2961 10.4789C13.166 11.3901 12.7364 12.1234 12.0074 12.6788C10.3065 13.9631 8.99177 15.5339 8.06321 17.391C7.13465 19.2481 6.67037 21.2267 6.67037 23.3269C6.67037 25.1319 7.02183 26.8545 7.72476 28.4947C8.42769 30.1349 9.37795 31.5537 10.5755 32.7513C11.7731 33.9489 13.192 34.8992 14.8322 35.6021C16.4723 36.305 18.1949 36.6565 20 36.6565C21.8051 36.6565 23.5277 36.305 25.1678 35.6021C26.808 34.8992 28.2269 33.9489 29.4245 32.7513C30.622 31.5537 31.5723 30.1349 32.2752 28.4947C32.9782 26.8545 33.3296 25.1319 33.3296 23.3269C33.3296 21.2267 32.8653 19.2481 31.9368 17.391C31.0082 15.5339 29.6935 13.9631 27.9926 12.6788C27.2636 12.1234 26.834 11.3901 26.7039 10.4789C26.5737 9.56765 26.7863 8.74757 27.3417 8.01861C27.8798 7.27229 28.6087 6.83838 29.5286 6.71688C30.4485 6.59539 31.2729 6.81234 32.0019 7.36775C34.5359 9.25958 36.5015 11.6027 37.8987 14.397C39.2958 17.1914 39.9944 20.168 39.9944 23.3269ZM23.3324 3.33241V19.9944C23.3324 20.897 23.0026 21.678 22.3431 22.3375C21.6836 22.9971 20.9025 23.3269 20 23.3269C19.0975 23.3269 18.3164 22.9971 17.6569 22.3375C16.9974 21.678 16.6676 20.897 16.6676 19.9944V3.33241C16.6676 2.42988 16.9974 1.64885 17.6569 0.989309C18.3164 0.329769 19.0975 0 20 0C20.9025 0 21.6836 0.329769 22.3431 0.989309C23.0026 1.64885 23.3324 2.42988 23.3324 3.33241Z"/>
</svg>
