<svg width="50" height="50" viewBox="5 10 70 70"
    xmlns="http://www.w3.org/2000/svg">
    <path d="M36.6665 66.6668H13.3332C9.6665 66.6668 6.6665 63.6668 6.6665 60.0002V20.0002C6.6665 16.3335 9.6665 13.3335 13.3332 13.3335H16.6665L23.3332 26.6668H33.3332L26.6665 13.3335H33.3332L39.9998 26.6668H49.9998L43.3332 13.3335H49.9998L56.6665 26.6668H66.6665L59.9998 13.3335H73.3332V43.3335C71.6665 40.6668 69.3332 38.3335 66.6665 36.6668V33.3335H19.3332L13.3332 21.6668V60.0002H33.9998C34.6665 62.3335 35.3332 64.6668 36.6665 66.6668ZM67.6665 63.0002C68.9998 60.6668 69.9998 58.0002 69.9998 55.0002C69.9998 46.6668 63.3332 40.0002 54.9998 40.0002C46.6665 40.0002 39.9998 46.6668 39.9998 55.0002C39.9998 63.3335 46.6665 70.0002 54.9998 70.0002C57.9998 70.0002 60.6665 69.3335 62.9998 67.6668L73.3332 78.0002L77.9998 73.3335L67.6665 63.0002ZM54.9998 63.3335C50.3332 63.3335 46.6665 59.6668 46.6665 55.0002C46.6665 50.3335 50.3332 46.6668 54.9998 46.6668C59.6665 46.6668 63.3332 50.3335 63.3332 55.0002C63.3332 59.6668 59.6665 63.3335 54.9998 63.3335Z"/>
</svg>
