<svg width="50" height="50" viewBox="0 0 68 68" fill="none"
    xmlns="http://www.w3.org/2000/svg">
    <path fill-rule="evenodd" clip-rule="evenodd" d="M34 67.3333C29.6226 67.3333 25.2881 66.4711 21.2439 64.7959C17.1997 63.1208 13.525 60.6655 10.4298 57.5702C4.17855 51.319 0.666656 42.8405 0.666656 34C0.666656 25.1594 4.17855 16.6809 10.4298 10.4297C16.681 4.17852 25.1594 0.666626 34 0.666626C52.3333 0.666626 67.3333 14 67.3333 30.6666C67.3333 35.971 65.2262 41.058 61.4755 44.8088C57.7247 48.5595 52.6377 50.6666 47.3333 50.6666H41.3333C40.3333 50.6666 39.6667 51.3333 39.6667 52.3333C39.6667 52.5 39.75 52.6666 39.8333 52.8333C39.9167 53 40 53.1666 40 53.3333C41.3333 55 42 57 42 59C42.3333 63.6666 38.6667 67.3333 34 67.3333ZM15.6667 27.3333C18.3333 27.3333 20.6667 29.6666 20.6667 32.3333C20.6667 35 18.3333 37.3333 15.6667 37.3333C13 37.3333 10.6667 35 10.6667 32.3333C10.6667 29.6666 13 27.3333 15.6667 27.3333ZM30.6667 19C30.6667 16.3333 28.3333 14 25.6667 14C23 14 20.6667 16.3333 20.6667 19C20.6667 21.6666 23 24 25.6667 24C28.3333 24 30.6667 21.6666 30.6667 19ZM42.3333 14C45 14 47.3333 16.3333 47.3333 19C47.3333 21.6666 45 24 42.3333 24C39.6667 24 37.3333 21.6666 37.3333 19C37.3333 16.3333 39.6667 14 42.3333 14ZM57.3333 32.3333C57.3333 29.6666 55 27.3333 52.3333 27.3333C49.6667 27.3333 47.3333 29.6666 47.3333 32.3333C47.3333 35 49.6667 37.3333 52.3333 37.3333C55 37.3333 57.3333 35 57.3333 32.3333Z"/>
</svg>