<svg width="40" height="40" viewBox="0 0 40 40" fill="none"
    xmlns="http://www.w3.org/2000/svg">
    <path d="M14 30.625L20 26L26 30.625L23.75 23L29.375 19H22.375L20 11.25L17.625 19H10.625L16.25 23L14 30.625ZM20 32.25L10.75 39.3125C10.2917 39.6875 9.79167 39.8642 9.25 39.8425C8.70834 39.8225 8.22917 39.6667 7.8125 39.375C7.39584 39.0833 7.07334 38.6875 6.845 38.1875C6.615 37.6875 6.60417 37.1458 6.8125 36.5625L10.375 25L1.3125 18.5625C0.812504 18.2292 0.500004 17.7917 0.375004 17.25C0.250004 16.7083 0.270838 16.2083 0.437505 15.75C0.604171 15.2917 0.895838 14.885 1.3125 14.53C1.72917 14.1767 2.22917 14 2.8125 14H14L17.625 2C17.8333 1.41667 18.1567 0.968334 18.595 0.655001C19.0317 0.343334 19.5 0.1875 20 0.1875C20.5 0.1875 20.9683 0.343334 21.405 0.655001C21.8433 0.968334 22.1667 1.41667 22.375 2L26 14H37.1875C37.7708 14 38.2708 14.1767 38.6875 14.53C39.1042 14.885 39.3958 15.2917 39.5625 15.75C39.7292 16.2083 39.75 16.7083 39.625 17.25C39.5 17.7917 39.1875 18.2292 38.6875 18.5625L29.625 25L33.1875 36.5625C33.3958 37.1458 33.3858 37.6875 33.1575 38.1875C32.9275 38.6875 32.6042 39.0833 32.1875 39.375C31.7708 39.6667 31.2917 39.8225 30.75 39.8425C30.2083 39.8642 29.7083 39.6875 29.25 39.3125L20 32.25Z" />
</svg>
