<svg width="50" height="50" viewBox="0 0 40 40" fill="none" xmlns="http://www.w3.org/2000/svg">
<path d="M19.7758 32.0625L10.5258 39.125C10.0675 39.5 9.56749 39.6767 9.02582 39.655C8.48415 39.635 8.00499 39.4792 7.58832 39.1875C7.17165 38.8958 6.84915 38.5 6.62082 38C6.39082 37.5 6.37999 36.9583 6.58832 36.375L10.1508 24.8125L1.08832 18.375C0.588322 18.0417 0.275822 17.6042 0.150822 17.0625C0.0258221 16.5208 0.0466557 16.0208 0.213322 15.5625C0.379989 15.1042 0.671655 14.6975 1.08832 14.3425C1.50499 13.9892 2.00499 13.8125 2.58832 13.8125H13.7758L17.4008 1.8125C17.6092 1.22917 17.9325 0.780834 18.3708 0.467501C18.8075 0.155834 19.2758 0 19.7758 0C20.2758 0 20.7442 0.155834 21.1808 0.467501C21.6192 0.780834 21.9425 1.22917 22.1508 1.8125L25.7758 13.8125H36.9633C37.5467 13.8125 38.0467 13.9892 38.4633 14.3425C38.88 14.6975 39.1717 15.1042 39.3383 15.5625C39.505 16.0208 39.5258 16.5208 39.4008 17.0625C39.2758 17.6042 38.9633 18.0417 38.4633 18.375L29.4008 24.8125L32.9633 36.375C33.1717 36.9583 33.1617 37.5 32.9333 38C32.7033 38.5 32.38 38.8958 31.9633 39.1875C31.5467 39.4792 31.0675 39.635 30.5258 39.655C29.9842 39.6767 29.4842 39.5 29.0258 39.125L19.7758 32.0625Z" fill="white"/>
</svg>
