<svg width="49" height="48" viewBox="0 0 49 48" fill="none"
    xmlns="http://www.w3.org/2000/svg">
    <path d="M0.481171 6C0.481171 4.4087 1.11331 2.88258 2.23853 1.75736C3.36375 0.632141 4.88987 0 6.48117 0H36.4812C38.0725 0 39.5986 0.632141 40.7238 1.75736C41.849 2.88258 42.4812 4.4087 42.4812 6V19.8C40.1597 18.6127 37.5887 17.9956 34.9812 18C31.4502 18 28.1772 19.11 25.4922 21H19.9812C19.5833 21 19.2018 21.158 18.9205 21.4393C18.6392 21.7206 18.4812 22.1022 18.4812 22.5C18.4812 22.8978 18.6392 23.2794 18.9205 23.5607C19.2018 23.842 19.5833 24 19.9812 24H22.2522C19.809 26.9531 18.4751 30.6673 18.4812 34.5C18.4812 37.2 19.1292 39.75 20.2812 42H6.48117C4.88987 42 3.36375 41.3679 2.23853 40.2426C1.11331 39.1174 0.481171 37.5913 0.481171 36V6ZM11.7312 15C12.3279 15 12.9002 14.7629 13.3222 14.341C13.7441 13.919 13.9812 13.3467 13.9812 12.75C13.9812 12.1533 13.7441 11.581 13.3222 11.159C12.9002 10.7371 12.3279 10.5 11.7312 10.5C11.1344 10.5 10.5621 10.7371 10.1402 11.159C9.71822 11.581 9.48117 12.1533 9.48117 12.75C9.48117 13.3467 9.71822 13.919 10.1402 14.341C10.5621 14.7629 11.1344 15 11.7312 15ZM9.48117 21.75C9.48117 22.3467 9.71822 22.919 10.1402 23.341C10.5621 23.7629 11.1344 24 11.7312 24C12.3279 24 12.9002 23.7629 13.3222 23.341C13.7441 22.919 13.9812 22.3467 13.9812 21.75C13.9812 21.1533 13.7441 20.581 13.3222 20.159C12.9002 19.7371 12.3279 19.5 11.7312 19.5C11.1344 19.5 10.5621 19.7371 10.1402 20.159C9.71822 20.581 9.48117 21.1533 9.48117 21.75ZM11.7312 33C12.3279 33 12.9002 32.7629 13.3222 32.341C13.7441 31.919 13.9812 31.3467 13.9812 30.75C13.9812 30.1533 13.7441 29.581 13.3222 29.159C12.9002 28.7371 12.3279 28.5 11.7312 28.5C11.1344 28.5 10.5621 28.7371 10.1402 29.159C9.71822 29.581 9.48117 30.1533 9.48117 30.75C9.48117 31.3467 9.71822 31.919 10.1402 32.341C10.5621 32.7629 11.1344 33 11.7312 33ZM31.9812 12H19.9812C19.5833 12 19.2018 12.158 18.9205 12.4393C18.6392 12.7206 18.4812 13.1022 18.4812 13.5C18.4812 13.8978 18.6392 14.2794 18.9205 14.5607C19.2018 14.842 19.5833 15 19.9812 15H31.9812C32.379 15 32.7605 14.842 33.0418 14.5607C33.3231 14.2794 33.4812 13.8978 33.4812 13.5C33.4812 13.1022 33.3231 12.7206 33.0418 12.4393C32.7605 12.158 32.379 12 31.9812 12ZM34.9812 48C38.5616 48 41.9954 46.5777 44.5271 44.0459C47.0589 41.5142 48.4812 38.0804 48.4812 34.5C48.4812 30.9196 47.0589 27.4858 44.5271 24.9541C41.9954 22.4223 38.5616 21 34.9812 21C31.4007 21 27.967 22.4223 25.4352 24.9541C22.9035 27.4858 21.4812 30.9196 21.4812 34.5C21.4812 38.0804 22.9035 41.5142 25.4352 44.0459C27.967 46.5777 31.4007 48 34.9812 48ZM33.4812 28.5C33.4812 28.1022 33.6392 27.7206 33.9205 27.4393C34.2018 27.158 34.5833 27 34.9812 27C35.379 27 35.7605 27.158 36.0418 27.4393C36.3231 27.7206 36.4812 28.1022 36.4812 28.5V33H39.4812C39.879 33 40.2605 33.158 40.5418 33.4393C40.8231 33.7206 40.9812 34.1022 40.9812 34.5C40.9812 34.8978 40.8231 35.2794 40.5418 35.5607C40.2605 35.842 39.879 36 39.4812 36H34.9812C34.5833 36 34.2018 35.842 33.9205 35.5607C33.6392 35.2794 33.4812 34.8978 33.4812 34.5V28.5Z" />
</svg>
