<svg width="50" height="50" viewBox="0 0 44 44" fill="none"
    xmlns="http://www.w3.org/2000/svg">
    <g clip-path="url(#clip0_165_71)">
        <path d="M37 0H7C3.13401 0 0 3.13401 0 7V37C0 40.866 3.13401 44 7 44H37C40.866 44 44 40.866 44 37V7C44 3.13401 40.866 0 37 0Z" />
        <path d="M34 11H18C16.8954 11 16 11.8954 16 13C16 14.1046 16.8954 15 18 15H34C35.1046 15 36 14.1046 36 13C36 11.8954 35.1046 11 34 11Z" fill="white"/>
        <path d="M34 20H18C16.8954 20 16 20.8954 16 22C16 23.1046 16.8954 24 18 24H34C35.1046 24 36 23.1046 36 22C36 20.8954 35.1046 20 34 20Z" fill="white"/>
        <path d="M34 29H18C16.8954 29 16 29.8954 16 31C16 32.1046 16.8954 33 18 33H34C35.1046 33 36 32.1046 36 31C36 29.8954 35.1046 29 34 29Z" fill="white"/>
        <path d="M12 12.5C12 11.1193 10.8807 10 9.5 10C8.11929 10 7 11.1193 7 12.5C7 13.8807 8.11929 15 9.5 15C10.8807 15 12 13.8807 12 12.5Z" fill="white"/>
        <path d="M12 21.5C12 20.1193 10.8807 19 9.5 19C8.11929 19 7 20.1193 7 21.5C7 22.8807 8.11929 24 9.5 24C10.8807 24 12 22.8807 12 21.5Z" fill="white"/>
        <path d="M12 30.5C12 29.1193 10.8807 28 9.5 28C8.11929 28 7 29.1193 7 30.5C7 31.8807 8.11929 33 9.5 33C10.8807 33 12 31.8807 12 30.5Z" fill="white"/>
    </g>
    <defs>
        <clipPath id="clip0_165_71">
            <rect width="44" height="44" fill="white"/>
        </clipPath>
    </defs>
</svg>
